<svg width="60" height="59" viewBox="0 0 60 59" fill="none" xmlns="http://www.w3.org/2000/svg">
<rect width="60" height="59" fill="white"/>
<rect x="9" y="8" width="43" height="43" stroke="black" stroke-width="2" stroke-dasharray="2 2"/>
<circle cx="8.5" cy="7.5" r="2" fill="white" stroke="black"/>
<circle cx="8.5" cy="7.5" r="2" fill="white" stroke="black"/>
<circle cx="8.5" cy="51.5" r="2" fill="white" stroke="black"/>
<circle cx="52.5" cy="52.5" r="2" fill="white" stroke="black"/>
<circle cx="52.5" cy="7.5" r="2" fill="white" stroke="black"/>
<rect x="28" y="27" width="18" height="18" rx="1" stroke="black" stroke-width="2"/>
<rect x="15" y="14" width="18" height="18" rx="1" fill="white" stroke="black" stroke-width="2"/>
<path d="M18 22C18 22.5523 18.4477 23 19 23C19.5523 23 20 22.5523 20 22L18 22ZM20 22L20 17L18 17L18 22L20 22Z" fill="black"/>
<path d="M24 19C24.5523 19 25 18.5523 25 18C25 17.4477 24.5523 17 24 17V19ZM19 19H24V17H19V19Z" fill="black"/>
<path d="M43 41C43 41.5523 42.5523 42 42 42C41.4477 42 41 41.5523 41 41L43 41ZM41 41L41 37L43 37L43 41L41 41Z" fill="black"/>
<path d="M37 36C36.4477 36 36 36.4477 36 37C36 37.5523 36.4477 38 37 38V36ZM43 36H37V38H43V36Z" fill="black"/>
</svg>
