<svg width="38" height="38" viewBox="0 0 38 38" fill="none" xmlns="http://www.w3.org/2000/svg">
<path d="M11.0834 18.2083V22.1667M11.0834 18.2083V8.70833C11.0834 8.07844 11.3336 7.47435 11.779 7.02895C12.2244 6.58356 12.8285 6.33333 13.4584 6.33333C14.0883 6.33333 14.6924 6.58356 15.1378 7.02895C15.5832 7.47435 15.8334 8.07844 15.8334 8.70833M11.0834 18.2083C11.0834 17.5784 10.8332 16.9744 10.3878 16.529C9.94235 16.0836 9.33826 15.8333 8.70837 15.8333C8.07848 15.8333 7.47439 16.0836 7.029 16.529C6.5836 16.9744 6.33337 17.5784 6.33337 18.2083V21.375C6.33337 24.5244 7.58449 27.5449 9.81148 29.7719C12.0385 31.9989 15.0589 33.25 18.2084 33.25C21.3578 33.25 24.3783 31.9989 26.6053 29.7719C28.8323 27.5449 30.0834 24.5244 30.0834 21.375V13.4583C30.0834 12.8284 29.8332 12.2244 29.3878 11.779C28.9424 11.3336 28.3383 11.0833 27.7084 11.0833C27.0785 11.0833 26.4744 11.3336 26.029 11.779C25.5836 12.2244 25.3334 12.8284 25.3334 13.4583M15.8334 8.70833V17.4167M15.8334 8.70833V7.125C15.8334 6.49511 16.0836 5.89102 16.529 5.44562C16.9744 5.00022 17.5785 4.75 18.2084 4.75C18.8383 4.75 19.4424 5.00022 19.8878 5.44562C20.3332 5.89102 20.5834 6.49511 20.5834 7.125V8.70833M25.3334 13.4583V8.70833C25.3334 8.07844 25.0832 7.47435 24.6378 7.02895C24.1924 6.58356 23.5883 6.33333 22.9584 6.33333C22.3285 6.33333 21.7244 6.58356 21.279 7.02895C20.8336 7.47435 20.5834 8.07844 20.5834 8.70833M25.3334 13.4583V17.4167M20.5834 8.70833V17.4167" stroke="#3F3F46" stroke-width="2" stroke-linecap="round" stroke-linejoin="round"/>
</svg>
