<svg width="22" height="17" viewBox="0 0 22 17" fill="none" xmlns="http://www.w3.org/2000/svg">
<path d="M8.50008 3.54159V3.54867M8.50008 8.49992V8.507M8.50008 13.4583V13.4653M8.50008 4.24992C8.31222 4.24992 8.13205 4.17529 7.99921 4.04245C7.86638 3.90961 7.79175 3.72945 7.79175 3.54159C7.79175 3.35372 7.86638 3.17356 7.99921 3.04072C8.13205 2.90788 8.31222 2.83325 8.50008 2.83325C8.68794 2.83325 8.86811 2.90788 9.00095 3.04072C9.13379 3.17356 9.20841 3.35372 9.20841 3.54159C9.20841 3.72945 9.13379 3.90961 9.00095 4.04245C8.86811 4.17529 8.68794 4.24992 8.50008 4.24992ZM8.50008 9.20825C8.31222 9.20825 8.13205 9.13362 7.99921 9.00079C7.86638 8.86795 7.79175 8.68778 7.79175 8.49992C7.79175 8.31206 7.86638 8.13189 7.99921 7.99905C8.13205 7.86621 8.31222 7.79159 8.50008 7.79159C8.68794 7.79159 8.86811 7.86621 9.00095 7.99905C9.13379 8.13189 9.20841 8.31206 9.20841 8.49992C9.20841 8.68778 9.13379 8.86795 9.00095 9.00079C8.86811 9.13362 8.68794 9.20825 8.50008 9.20825ZM8.50008 14.1666C8.31222 14.1666 8.13205 14.092 7.99921 13.9591C7.86638 13.8263 7.79175 13.6461 7.79175 13.4583C7.79175 13.2704 7.86638 13.0902 7.99921 12.9574C8.13205 12.8245 8.31222 12.7499 8.50008 12.7499C8.68794 12.7499 8.86811 12.8245 9.00095 12.9574C9.13379 13.0902 9.20841 13.2704 9.20841 13.4583C9.20841 13.6461 9.13379 13.8263 9.00095 13.9591C8.86811 14.092 8.68794 14.1666 8.50008 14.1666Z" stroke="#3F3F46" stroke-opacity="0.4" stroke-width="2" stroke-linecap="round" stroke-linejoin="round"/>
<path d="M13.5001 3.54159V3.54867M13.5001 8.49992V8.507M13.5001 13.4583V13.4653M13.5001 4.24992C13.3122 4.24992 13.1321 4.17529 12.9992 4.04245C12.8664 3.90961 12.7917 3.72945 12.7917 3.54159C12.7917 3.35372 12.8664 3.17356 12.9992 3.04072C13.1321 2.90788 13.3122 2.83325 13.5001 2.83325C13.6879 2.83325 13.8681 2.90788 14.0009 3.04072C14.1338 3.17356 14.2084 3.35372 14.2084 3.54159C14.2084 3.72945 14.1338 3.90961 14.0009 4.04245C13.8681 4.17529 13.6879 4.24992 13.5001 4.24992ZM13.5001 9.20825C13.3122 9.20825 13.1321 9.13362 12.9992 9.00079C12.8664 8.86795 12.7917 8.68778 12.7917 8.49992C12.7917 8.31206 12.8664 8.13189 12.9992 7.99905C13.1321 7.86621 13.3122 7.79159 13.5001 7.79159C13.6879 7.79159 13.8681 7.86621 14.0009 7.99905C14.1338 8.13189 14.2084 8.31206 14.2084 8.49992C14.2084 8.68778 14.1338 8.86795 14.0009 9.00079C13.8681 9.13362 13.6879 9.20825 13.5001 9.20825ZM13.5001 14.1666C13.3122 14.1666 13.1321 14.092 12.9992 13.9591C12.8664 13.8263 12.7917 13.6461 12.7917 13.4583C12.7917 13.2704 12.8664 13.0902 12.9992 12.9574C13.1321 12.8245 13.3122 12.7499 13.5001 12.7499C13.6879 12.7499 13.8681 12.8245 14.0009 12.9574C14.1338 13.0902 14.2084 13.2704 14.2084 13.4583C14.2084 13.6461 14.1338 13.8263 14.0009 13.9591C13.8681 14.092 13.6879 14.1666 13.5001 14.1666Z" stroke="#3F3F46" stroke-opacity="0.4" stroke-width="2" stroke-linecap="round" stroke-linejoin="round"/>
</svg>
