<svg width="38" height="38" viewBox="0 0 38 38" fill="none" xmlns="http://www.w3.org/2000/svg">
<path d="M17.4167 7.91667H9.50004C8.66019 7.91667 7.85473 8.2503 7.26087 8.84416C6.667 9.43803 6.33337 10.2435 6.33337 11.0833V28.5C6.33337 29.3399 6.667 30.1453 7.26087 30.7392C7.85473 31.333 8.66019 31.6667 9.50004 31.6667H26.9167C27.7566 31.6667 28.562 31.333 29.1559 30.7392C29.7497 30.1453 30.0834 29.3399 30.0834 28.5V20.5833M27.8445 5.67784C28.1367 5.37539 28.4861 5.13414 28.8724 4.96818C29.2588 4.80222 29.6743 4.71486 30.0948 4.71121C30.5152 4.70756 30.9322 4.78768 31.3214 4.9469C31.7106 5.10612 32.0641 5.34126 32.3615 5.63859C32.6588 5.93591 32.8939 6.28948 33.0531 6.67865C33.2124 7.06782 33.2925 7.48481 33.2888 7.90527C33.2852 8.32574 33.1978 8.74127 33.0319 9.12762C32.8659 9.51396 32.6247 9.86339 32.3222 10.1555L18.7277 23.75H14.25V19.2723L27.8445 5.67784Z" stroke="#3F3F46" stroke-width="2" stroke-linecap="round" stroke-linejoin="round"/>
</svg>
